<svg class="prefix__icon" viewBox="0 0 1024 1024" xmlns="http://www.w3.org/2000/svg" width="200" height="200"><path d="M209.306 867.277h432.076c43.623 0 78.95-35.38 78.95-78.95V143.922c0-43.622-35.378-78.95-78.95-78.95H209.306c-43.623 0-78.95 35.379-78.95 78.95v644.403c-.052 43.623 35.327 78.95 78.95 78.95z" fill="#FFD05C"/><path d="M367.002 951.706h303.206L888.474 722.79V262.042c0-48.845-39.578-88.423-88.423-88.423h-433.05c-48.844 0-88.422 39.578-88.422 88.423v601.19c-.051 48.845 39.578 88.474 88.423 88.474z" fill="#FFD05C"/><path d="M720.333 786.534V173.62H367.002c-48.845 0-88.423 39.578-88.423 88.423v601.19c0 1.382.154 2.714.205 4.045H639.59c44.596 0 80.743-36.147 80.743-80.743z" fill="#FCA235"/><path d="M713.37 384.154h-294.4c-22.63 0-40.96-18.33-40.96-40.96s18.33-40.96 40.96-40.96h294.4c22.63 0 40.96 18.33 40.96 40.96s-18.33 40.96-40.96 40.96zm0 135.628h-294.4c-22.63 0-40.96-18.33-40.96-40.96s18.33-40.96 40.96-40.96h294.4c22.63 0 40.96 18.33 40.96 40.96s-18.33 40.96-40.96 40.96zm-130.458 139.52H418.97c-22.63 0-40.96-18.33-40.96-40.96s18.33-40.96 40.96-40.96h163.993c22.63 0 40.96 18.33 40.96 40.96s-18.38 40.96-41.011 40.96z" fill="#FFF"/><path d="M670.208 951.706L888.474 722.79v-55.142H713.01c-43.213 0-78.233 35.02-78.233 78.234v205.772h35.43z" fill="#FCA235"/><path d="M670.208 951.706L888.474 722.79v-55.142H713.01c-43.213 0-78.233 35.02-78.233 78.234v205.772h35.43z" fill="#FCA235"/><path d="M713.011 667.648c-43.213 0-78.233 35.02-78.233 78.234v121.395h4.812c44.596 0 80.743-36.147 80.743-80.743V667.648h-7.322z" fill="#F99026"/></svg>