<svg class="prefix__icon" viewBox="0 0 1024 1024" xmlns="http://www.w3.org/2000/svg" width="200" height="200"><path d="M578.256 591.814v-82.97m0 95.542a12.655 12.655 0 01-12.571-12.572v-82.97a12.571 12.571 0 1125.143 0v82.97a12.571 12.571 0 01-12.572 12.572z" fill="#F89B1B"/><path d="M598.873 479.343a36.96 36.96 0 01-27.573-61.6 52.38 52.38 0 1062.522 36.541 36.876 36.876 0 01-34.949 25.059zm204.075-109.035v-82.971m0 95.542a12.571 12.571 0 01-12.572-12.571v-82.971a12.571 12.571 0 1125.143 0v82.97a12.571 12.571 0 01-12.571 12.572z" fill="#F89B1B"/><path d="M823.984 257.836a36.96 36.96 0 01-27.657-61.515 52.13 52.13 0 1064.616 50.285 53.051 53.051 0 00-2.011-14.164 36.876 36.876 0 01-34.948 25.394z" fill="#F89B1B"/><path d="M803.283 328.822a59.588 59.588 0 0159.588 59.588v397.254H743.695V388.41a59.588 59.588 0 0159.588-59.588zM581.776 551.167a143.145 143.145 0 01143.146 143.145v143.23H438.463v-143.23a143.145 143.145 0 01143.313-143.145z" fill="#612273"/><path d="M600.969 198.667l-49.112-4.693a8.38 8.38 0 01-7.04-5.196l-17.6-42.659a8.38 8.38 0 00-15.672 0l-17.433 42.659a8.38 8.38 0 01-7.04 5.196l-49.112 4.693a8.38 8.38 0 00-4.777 14.75l36.96 32.518a8.38 8.38 0 012.682 8.381l-11.063 45.676a8.38 8.38 0 0012.488 9.303l40.982-24.22a8.38 8.38 0 018.381 0l40.982 24.136a8.38 8.38 0 0012.572-9.303l-10.98-45.676a8.38 8.38 0 012.683-8.38l37.21-32.434a8.38 8.38 0 00-5.028-14.75z" fill="#FED150"/><path d="M470.897 246.773l1.928-8.38a8.38 8.38 0 00-2.682-8.381l-35.032-30.507a8.38 8.38 0 00-1.928 13.913l36.96 32.517a6.789 6.789 0 01.754.838zm133.089-47.184l-34.949 30.674a8.38 8.38 0 00-2.682 8.381l1.928 8.38a6.789 6.789 0 01.754-.837l37.044-32.77a8.38 8.38 0 00-2.095-13.828zm-28.58 92.19a8.38 8.38 0 01-10.643 1.76l-40.982-24.053a8.38 8.38 0 00-8.381 0l-41.15 23.969a8.38 8.38 0 01-10.644-1.676l-1.928 8.38a8.38 8.38 0 0012.488 9.303l41.066-24.388a8.38 8.38 0 018.381 0l40.982 24.137a8.38 8.38 0 0012.572-9.303z" fill="#FED150" opacity=".5"/><path d="M434.608 426.543l-28.16-2.682a4.86 4.86 0 01-4.023-3.017l-10.057-24.388a4.86 4.86 0 00-8.967 0l-9.973 24.388a4.693 4.693 0 01-4.023 3.017l-28.16 2.682a4.86 4.86 0 00-2.766 8.381l21.204 18.606a4.945 4.945 0 011.592 4.777l-6.62 26.148a4.86 4.86 0 007.123 5.364l23.467-13.828a5.196 5.196 0 014.944 0l23.467 13.828a4.86 4.86 0 007.124-5.364l-6.286-26.064a4.86 4.86 0 011.509-4.777l21.203-18.606a4.86 4.86 0 00-2.85-8.38z" fill="#FED150"/><path d="M360.102 454.033l1.173-4.61a4.945 4.945 0 00-1.592-5.112l-20.03-17.684a4.945 4.945 0 00-1.174 8.381l21.204 18.606zm76.182-26.987l-20.03 17.265a4.86 4.86 0 00-1.509 4.777l1.174 4.693v-.503l21.203-18.605a4.86 4.86 0 00-.838-7.627zm-16.342 52.8a4.777 4.777 0 01-6.035 1.005l-23.466-13.828a5.196 5.196 0 00-4.945 0l-23.466 13.828a4.777 4.777 0 01-6.035-1.005l-1.09 4.61a4.86 4.86 0 007.125 5.363l23.466-13.828a5.196 5.196 0 014.945 0l23.466 13.828a4.86 4.86 0 007.124-5.364z" fill="#FED150" opacity=".5"/><path d="M635.414 803.683A414.686 414.686 0 01459.415 18.73 9.806 9.806 0 00453.968.124a513.832 513.832 0 10567.05 607.027 9.806 9.806 0 00-18.186-6.704 414.35 414.35 0 01-367.418 203.236z" fill="#FED150"/><path d="M50.931 292.868a460.11 460.11 0 00275.312 359.456A413.848 413.848 0 01459.583 18.73 9.806 9.806 0 00453.968.124 513.915 513.915 0 0050.93 292.868z" fill="#FED150" opacity=".4"/><path d="M1006.016 597.262A513.664 513.664 0 013.915 475.32c-.67 10.309-1.257 20.617-1.257 31.093a513.832 513.832 0 001018.36 100.57 9.806 9.806 0 00-15.002-9.721zM231.54 332.258c0 7.46.67 14.918 1.258 22.294A414.77 414.77 0 01459.583 18.73 9.806 9.806 0 00453.968.124a505.87 505.87 0 00-94.62 20.869 413.177 413.177 0 00-127.809 311.265z" fill="#FED150" opacity=".5"/><path d="M732.716 421.515h141.218q17.683 0 17.683 17.683v-.083q0 17.683-17.683 17.683H732.716q-17.684 0-17.684-17.683v.083q0-17.683 17.684-17.683zM205.14 319.603c4.441-6.872 22.041-45.34-11.817-67.047s-51.627 8.381-51.627 8.381a25.143 25.143 0 1042.743 27.49s2.179 5.95-6.537 18.437-25.143 12.236-43.078.755-47.017-65.79-.67-138.788c1.592-2.514 3.352-4.693 5.028-7.04a26.819 26.819 0 00-23.047-2.43 33.524 33.524 0 00-18.69 17.684c-31.26 64.365-22.628 127.724 21.204 155.884 48.944 31.093 82.049-6.453 86.49-13.326zm529.084 611.888c6.454-2.682 37.714-21.455 24.305-53.386s-40.647-19.36-40.647-19.36a21.874 21.874 0 1016.762 40.312s-1.341 5.364-13.577 9.974-23.802-3.772-31.177-20.534-1.341-69.56 67.047-98.894c2.346-1.006 4.693-1.676 7.04-2.514a31.931 31.931 0 00-1.928-3.353 28.579 28.579 0 00-38.636-7.542c-51.877 30.841-74.422 81.546-57.325 122.277 19.779 46.262 61.6 35.786 68.136 33.02zm-454.41-128.646c-5.951-3.688-39.39-18.354-57.661 11.146s7.794 44.335 7.794 44.335a21.874 21.874 0 1023.047-36.876s5.113-2.011 16.008 5.28 10.811 21.623 1.173 37.211-55.984 41.318-119.511 2.43c-2.18-1.34-4.107-2.849-6.118-4.273a22.377 22.377 0 00-1.676 3.52 28.663 28.663 0 0016.342 36.037c55.147 24.389 109.538 13.41 132.921-24.137 26.4-42.91-6.37-70.902-12.32-74.673zm151.19-108.533h302.299m0 20.953H431.004a20.952 20.952 0 010-41.905h302.299a20.952 20.952 0 010 41.905z" fill="#EB3D72"/><path d="M225.589 683.082a30.171 30.171 0 1060.342 0 30.171 30.171 0 10-60.342 0zM326.076 840.978a30.171 30.171 0 1060.342 0 30.171 30.171 0 10-60.342 0zM24.699999999999996 472.135a30.171 30.171 0 1060.342 0 30.171 30.171 0 10-60.343 0z" fill="#FED150" opacity=".4"/><path d="M531.24 873.915a30.171 30.171 0 1060.342 0 30.171 30.171 0 10-60.342 0zM425.305 825.138a19.863 19.863 0 1039.726 0 19.863 19.863 0 10-39.726 0zM129.544 689.787a19.863 19.863 0 1039.725 0 19.863 19.863 0 10-39.725 0z" fill="#FED150" opacity=".5"/><path d="M113.286 633.3a18.94 18.94 0 1037.88 0 18.94 18.94 0 10-37.88 0zM456.39799999999997 906.935a18.94 18.94 0 1037.882 0 18.94 18.94 0 10-37.882 0z" fill="#FED150" opacity=".4"/></svg>